<!--?xml version="1.0" encoding="utf-8"?-->
<!-- Generator: Adobe Illustrator 18.1.1, SVG Export Plug-In . SVG Version: 6.00 Build 0)  -->

<svg version="1.1" id="_x32_" xmlns="http://www.w3.org/2000/svg" xmlns:xlink="http://www.w3.org/1999/xlink" x="0px" y="0px" viewBox="0 0 512 512" style="width: 16px; height: 16px; opacity: 1;" xml:space="preserve">
<style type="text/css">
	.st0{fill:#4B4B4B;}
</style>
<g>
	<path class="st0" d="M156.212,109.589c0.83,18.192,8.696,35.558,22.026,48.053l41.742,39.147
		c9.011,8.431,15.245,19.331,18.223,31.162c0,9.823,7.966,17.788,17.788,17.788c9.84,0,17.806-7.966,17.806-17.788
		c2.974-11.831,9.213-22.73,18.218-31.162l41.747-39.147c13.33-12.495,21.197-29.861,22.026-48.053H156.212z" style="fill: rgb(58, 171, 210);"></path>
	<path class="st0" d="M255.991,270.621c-6.449,0-11.67,5.221-11.67,11.671c0,6.449,5.221,11.67,11.67,11.67
		c6.468,0,11.684-5.221,11.684-11.67C267.675,275.842,262.458,270.621,255.991,270.621z" style="fill: rgb(58, 171, 210);"></path>
	<path class="st0" d="M255.991,333.744c-6.449,0-11.67,5.238-11.67,11.679c0,6.441,5.221,11.679,11.67,11.679
		c6.468,0,11.684-5.238,11.684-11.679C267.675,338.983,262.458,333.744,255.991,333.744z" style="fill: rgb(58, 171, 210);"></path>
	<path class="st0" d="M413.808,0H98.192v63.123h10.612c-0.026,0.619-0.085,1.22-0.085,1.83v45.955
		c0,32.49,13.442,63.526,37.141,85.736l41.742,39.147c3.364,3.157,5.279,7.543,5.279,12.163v18.864c0,4.62-1.915,9.015-5.279,12.173
		l-41.742,39.146c-23.699,22.21-37.141,53.238-37.141,85.737v45.003H98.192V512h315.616v-63.123h-10.526v-45.003
		c0-32.499-13.442-63.527-37.142-85.737l-41.747-39.146c-3.359-3.158-5.274-7.553-5.274-12.173v-18.864
		c0-4.62,1.915-9.006,5.262-12.163l41.76-39.147c23.7-22.21,37.142-53.246,37.142-85.736V64.953c0-0.61-0.058-1.211-0.086-1.83
		h10.612V0z M292.818,247.954v18.864c0,11.885,4.921,23.242,13.585,31.351l41.748,39.146c18.388,17.24,28.83,41.344,28.83,66.559
		v45.003h-40.442l-64.729-64.729c-8.737-8.728-22.883-8.728-31.633,0l-64.715,64.729h-40.443v-45.003
		c0-25.215,10.438-49.319,28.83-66.55l41.747-39.155c8.666-8.109,13.585-19.466,13.585-31.351v-18.864
		c0-11.886-4.92-23.233-13.585-31.36l-41.747-39.146c-18.393-17.232-28.83-41.326-28.83-66.54V64.953
		c0-0.628,0.112-1.211,0.184-1.83h241.594c0.072,0.619,0.184,1.202,0.184,1.83v45.955c0,25.215-10.441,49.308-28.83,66.54
		l-41.748,39.146C297.739,224.721,292.818,236.068,292.818,247.954z" style="fill: rgb(58, 171, 210);"></path>
</g>
</svg>
